<?xml version="1.0" standalone="no"?>
<!DOCTYPE svg PUBLIC "-//W3C//DTD SVG 20010904//EN"
 "http://www.w3.org/TR/2001/REC-SVG-20010904/DTD/svg10.dtd">
<svg version="1.0" xmlns="http://www.w3.org/2000/svg"
 width="250.000000pt" height="250.000000pt" viewBox="0 0 250.000000 250.000000"
 preserveAspectRatio="xMidYMid meet">

<g transform="translate(0.000000,250.000000) scale(0.100000,-0.100000)"
fill="#000000" stroke="none">
<path d="M2126 2190 c-47 -50 -71 -94 -60 -111 3 -5 0 -8 -6 -7 -7 2 -36 -49
-64 -112 -29 -63 -85 -182 -125 -265 -40 -82 -91 -188 -114 -235 -22 -47 -65
-130 -95 -185 -31 -55 -68 -124 -84 -153 -77 -142 -194 -257 -289 -282 -33 -9
-47 -7 -85 9 -52 23 -175 141 -220 211 -65 102 -184 335 -353 695 -183 389
-196 413 -254 455 l-32 23 25 -29 c14 -16 30 -32 35 -36 6 -4 6 -8 2 -8 -5 0
1 -13 12 -29 12 -16 21 -33 21 -37 0 -13 42 -98 59 -118 13 -16 13 -18 1 -11
-11 7 -11 2 3 -19 18 -26 26 -51 31 -88 1 -10 11 -27 22 -39 19 -22 19 -22 0
-15 -18 6 -19 5 -4 -11 17 -20 29 -47 35 -78 2 -11 8 -21 13 -23 5 -2 6 -10 3
-19 -4 -11 -2 -14 5 -9 8 5 11 0 9 -16 -2 -13 0 -30 4 -38 4 -8 16 -40 25 -70
9 -30 21 -60 26 -67 5 -7 6 -18 2 -24 -4 -7 -3 -9 3 -6 6 4 15 -12 22 -39 7
-25 19 -56 27 -69 10 -15 13 -32 9 -46 -5 -15 -4 -19 5 -14 9 6 9 1 -1 -16
-12 -23 -11 -23 7 -9 10 8 16 11 13 7 -4 -5 1 -29 11 -55 9 -26 15 -54 12 -62
-5 -13 -3 -13 13 0 17 14 17 13 10 -9 -4 -15 -4 -21 3 -17 6 4 8 -2 4 -16 -4
-15 -2 -19 7 -13 10 6 11 3 3 -11 -9 -18 -6 -44 7 -54 14 -11 51 -63 51 -72 0
-5 -12 4 -26 19 l-26 28 16 -27 c9 -15 16 -35 16 -43 0 -11 6 -15 19 -10 11 3
24 -1 32 -12 12 -14 12 -16 0 -8 -11 6 -13 4 -8 -9 4 -11 3 -15 -4 -11 -6 4
-8 13 -5 21 3 8 1 14 -4 14 -6 0 -10 -7 -10 -15 0 -22 36 -76 45 -67 5 4 5 2
2 -4 -9 -16 17 -77 28 -67 4 5 5 3 2 -3 -9 -16 24 -95 36 -87 6 3 7 1 4 -4 -8
-13 44 -114 55 -107 4 3 5 -3 1 -12 -5 -13 -3 -15 7 -9 9 5 11 4 6 -4 -11 -18
14 -73 30 -67 8 3 14 1 14 -3 0 -5 -6 -11 -12 -14 -8 -3 -3 -9 12 -15 17 -6
29 -6 38 0 8 7 12 7 12 0 0 -19 -26 -32 -39 -19 -10 9 -11 8 -6 -5 4 -10 12
-18 17 -18 6 0 8 -7 5 -15 -4 -8 -2 -17 3 -20 4 -3 7 6 6 20 -2 13 1 22 5 19
5 -3 9 -13 9 -23 0 -14 6 -17 27 -13 l27 5 -21 -23 c-12 -12 -26 -19 -32 -16
-7 4 -9 1 -5 -8 3 -8 12 -17 20 -20 7 -3 11 -12 8 -21 -3 -8 -1 -15 6 -15 6 0
8 -5 5 -10 -4 -6 -1 -9 6 -8 6 2 14 -3 17 -11 3 -8 0 -11 -7 -7 -7 5 -9 1 -5
-8 3 -9 10 -16 15 -16 5 0 8 -3 7 -7 -4 -17 14 -53 23 -47 6 3 9 -1 7 -9 -4
-20 14 -24 24 -6 4 8 73 151 154 319 80 168 171 357 202 420 30 63 55 121 55
128 0 6 4 12 8 12 8 0 19 25 25 60 3 14 12 31 21 38 9 6 13 12 7 12 -5 0 -3 4
5 9 8 5 15 27 16 48 2 43 18 87 36 99 8 5 9 3 3 -7 -12 -20 -14 -40 -3 -33 5
3 7 9 4 14 -3 5 -1 12 5 15 8 5 7 12 -2 22 -14 17 -20 46 -8 38 11 -7 40 34
39 55 0 8 -5 4 -10 -9 -5 -13 -11 -22 -14 -20 -7 7 6 49 16 49 4 0 11 17 14
38 10 59 37 122 48 115 6 -4 7 -1 2 8 -14 21 -6 70 16 106 11 18 18 37 15 42
-4 5 -1 11 5 13 5 2 12 15 14 28 1 14 14 53 28 88 14 34 22 60 16 57 -5 -3 -6
1 -3 9 3 9 10 14 14 11 8 -5 26 51 22 67 -1 3 5 12 13 18 8 7 15 21 15 31 0
10 5 21 10 24 11 7 44 76 42 88 -1 4 3 7 10 7 6 0 9 3 5 6 -6 6 13 32 47 65
11 11 15 19 9 19 -6 0 -31 -22 -57 -50z m-373 -1041 c-8 -8 -13 -7 -18 2 -5 8
-4 10 3 5 7 -4 12 -2 12 5 0 7 3 9 7 6 4 -4 2 -12 -4 -18z m-616 -665 c-3 -3
-12 -4 -19 -1 -8 3 -5 6 6 6 11 1 17 -2 13 -5z m122 -231 c-1 -54 -3 -90 -6
-80 -2 9 -9 15 -14 12 -5 -3 -6 1 -3 9 3 9 1 16 -6 16 -6 0 -8 5 -5 10 4 6 -1
23 -11 38 -17 27 -17 27 3 9 26 -22 33 -13 33 40 0 24 2 43 5 43 3 0 4 -44 4
-97z m-64 57 c3 -5 1 -10 -4 -10 -6 0 -11 5 -11 10 0 6 2 10 4 10 3 0 8 -4 11
-10z"/>
<path d="M2161 1666 l-24 -43 23 -67 c13 -36 27 -66 30 -66 4 0 17 22 30 50
l23 50 -24 60 c-13 33 -26 60 -29 60 -3 0 -16 -20 -29 -44z"/>
<path d="M2050 1390 c-13 -25 -36 -74 -51 -110 -14 -36 -88 -191 -163 -344
-75 -153 -136 -286 -134 -294 4 -21 132 83 197 160 92 108 160 279 166 411 l3
72 -23 -50 c-20 -43 -24 -46 -24 -23 -1 15 3 30 9 33 22 14 51 101 48 145 l-3
45 -25 -45z m-3 -202 c-3 -8 -6 -5 -6 6 -1 11 2 17 5 13 3 -3 4 -12 1 -19z"/>
<path d="M452 1373 c3 -22 25 -80 49 -129 24 -49 42 -95 41 -103 -2 -7 1 -10
7 -7 19 12 23 -16 5 -35 -14 -14 -23 -16 -34 -8 -11 8 -12 12 -2 16 14 6 16
33 2 33 -5 0 -10 -4 -10 -10 0 -5 -4 -10 -10 -10 -5 0 -10 8 -10 18 0 14 -2
15 -10 2 -5 -8 -10 -24 -10 -35 0 -17 2 -18 11 -5 8 12 9 11 4 -6 -6 -24 32
-131 81 -224 39 -75 86 -135 182 -233 105 -108 133 -114 88 -21 -15 31 -52
109 -81 173 -29 64 -87 188 -130 276 -43 88 -95 200 -116 250 -42 99 -65 123
-57 58z"/>
<path d="M1810 1305 c0 -7 30 -13 34 -7 3 4 -4 9 -15 9 -10 1 -19 0 -19 -2z"/>
<path d="M1780 1199 c0 -5 5 -7 10 -4 6 3 10 8 10 11 0 2 -4 4 -10 4 -5 0 -10
-5 -10 -11z"/>
<path d="M540 1115 c-7 -9 -11 -18 -8 -20 3 -3 11 1 18 10 7 9 11 18 8 20 -3
3 -11 -1 -18 -10z"/>
<path d="M766 1117 c3 -10 9 -15 12 -12 3 3 0 11 -7 18 -10 9 -11 8 -5 -6z"/>
<path d="M2206 1097 c-2 -6 -9 -32 -16 -57 -37 -137 -138 -299 -267 -428 -51
-51 -93 -94 -93 -97 0 -2 21 5 48 16 94 40 227 161 288 260 45 75 84 160 89
197 2 17 8 40 15 51 12 23 1 28 -18 9 -7 -7 -12 -9 -12 -5 0 3 10 15 22 27 24
22 18 26 -14 9 -18 -9 -20 -9 -15 4 3 9 -1 18 -9 21 -8 3 -16 0 -18 -7z"/>
<path d="M296 1023 c-18 -64 -16 -79 18 -150 55 -114 103 -182 195 -276 92
-95 172 -161 209 -172 47 -14 21 31 -67 115 -103 98 -218 247 -264 340 -17 36
-35 67 -39 70 -4 3 -10 26 -14 50 -7 44 -7 45 -17 16 -6 -18 -6 -30 1 -35 6
-4 4 -11 -6 -20 -13 -13 -14 -10 -10 32 6 48 3 61 -6 30z"/>
<path d="M260 1000 c0 -5 5 -10 11 -10 5 0 7 5 4 10 -3 6 -8 10 -11 10 -2 0
-4 -4 -4 -10z"/>
</g>
</svg>
